# OBJ generated by ONSHAPE BY PTC INC, 1.194 Units = meters
mtllib Walc_Backwall.mtl
g Part 1
v 0 0.0357956 -0.0215836 
v 0.001 0.0357956 -0.0215836 
v 0.001 0.0310956 -0.0215836 
v 0 0.0310956 -0.0215836 
v 0 0.0357956 -0.0143836 
v 0.001 0.0357956 -0.0143836 
v 0 -0.0552044 -0.0143836 
v 0.001 -0.0552044 -0.0143836 
v 0 -0.0552044 -0.0215836 
v 0.001 -0.0552044 -0.0215836 
v 0 -0.0505044 -0.0215836 
v 0.001 -0.0505044 -0.0215836 
v 0 -0.0505044 -0.0180836 
v 0.001 -0.0505044 -0.0180836 
v 0 -0.0470044 -0.0180836 
v 0.001 -0.0470044 -0.0180836 
v 0 -0.0470044 -0.0215836 
v 0.001 -0.0470044 -0.0215836 
v 0 0.0275956 -0.0215836 
v 0.001 0.0275956 -0.0215836 
v 0 0.0275956 -0.0180836 
v 0 0.0310956 -0.0180836 
v 0.001 0.0310956 -0.0180836 
v 0.001 0.0275956 -0.0180836 
vn 0 0 -1 
vn 0 1 0 
vn 0 -1.14377e-16 1 
vn 0 -1 0 
vn 0 0 -1 
vn 0 1 0 
vn 0 -1 0 
vn 0 0 -1 
vn -1 0 0 
vn 1 0 0 
vn 0 -1 0 
vn 0 1 0 
vn 0 0 -1 
usemtl 0.615686_0.811765_0.929412_0.000000_0.000000
o mesh0
f 1//1 2//1 3//1 
f 3//1 4//1 1//1 
o mesh1
f 2//2 1//2 5//2 
f 5//2 6//2 2//2 
o mesh2
f 6//3 5//3 7//3 
f 7//3 8//3 6//3 
o mesh3
f 8//4 7//4 9//4 
f 9//4 10//4 8//4 
o mesh4
f 9//5 11//5 12//5 
f 12//5 10//5 9//5 
o mesh5
f 12//6 11//6 13//6 
f 13//6 14//6 12//6 
o mesh6
f 14//5 13//5 15//5 
f 15//5 16//5 14//5 
o mesh7
f 16//7 15//7 17//7 
f 17//7 18//7 16//7 
o mesh8
f 17//8 19//8 20//8 
f 20//8 18//8 17//8 
o mesh9
f 9//9 7//9 13//9 
f 7//9 21//9 15//9 
f 15//9 13//9 7//9 
f 17//9 15//9 21//9 
f 21//9 19//9 17//9 
f 5//9 22//9 21//9 
f 21//9 7//9 5//9 
f 1//9 4//9 22//9 
f 22//9 5//9 1//9 
f 13//9 11//9 9//9 
o mesh10
f 2//10 6//10 23//10 
f 6//10 16//10 24//10 
f 24//10 23//10 6//10 
f 20//10 24//10 16//10 
f 16//10 18//10 20//10 
f 8//10 14//10 16//10 
f 16//10 6//10 8//10 
f 10//10 12//10 14//10 
f 14//10 8//10 10//10 
f 23//10 3//10 2//10 
o mesh11
f 23//11 22//11 4//11 
f 4//11 3//11 23//11 
o mesh12
f 20//12 19//12 21//12 
f 21//12 24//12 20//12 
o mesh13
f 24//13 21//13 22//13 
f 22//13 23//13 24//13 
